<svg width="116" height="32" viewBox="0 0 116 32" fill="none" xmlns="http://www.w3.org/2000/svg">
<path d="M85.0939 15.6519L85.6609 20.7412H81.8306L85.0939 15.6519ZM84.2323 7.41983C83.9288 7.41983 83.6431 7.57161 83.4689 7.82161L70.2503 27.076C69.8307 27.692 70.2681 28.5268 71.0137 28.5268H76.3886C76.7011 28.5268 76.9958 28.3706 77.1654 28.1072L78.4467 26.1385C78.6163 25.8751 78.911 25.7188 79.2234 25.7188H85.4154C85.9288 25.7188 86.3038 26.1742 86.2368 26.6831C86.0984 27.7009 86.8796 28.5358 87.8305 28.5358H92.7903C93.3573 28.5358 93.7903 28.0313 93.7055 27.4733L90.8127 8.21893C90.7457 7.76804 90.3528 7.43322 89.8975 7.43322H84.2368L84.2323 7.41983Z" fill="white"/>
<path d="M81.6476 4.07161C81.3619 4.63857 81.6163 5.33499 82.2011 5.58053L83.219 6.0091C83.6833 6.20552 84.2324 6.06267 84.527 5.65196C84.9466 5.06714 85.3842 4.72786 85.9333 4.72786C86.3216 4.72786 86.8618 5.02696 87.4288 5.41535C88.1163 5.89303 89.0761 6.37517 90.0939 6.37517C91.7279 6.37517 93.4109 5.30374 94.6475 2.83947C94.9332 2.27251 94.6832 1.57609 94.0939 1.33056L93.0761 0.901988C92.6118 0.705561 92.0627 0.848417 91.768 1.25913C91.3484 1.84395 90.9109 2.18323 90.3618 2.18323C89.9734 2.18323 89.4332 1.88412 88.8663 1.49573C88.1788 1.01806 87.219 0.535919 86.2011 0.535919C84.5672 0.535919 82.8842 1.60288 81.6476 4.07161Z" fill="white"/>
<path d="M55.7415 13.6876C54.9736 14.5715 54.362 15.6608 54.9201 16.9599C56.7325 19.3572 59.6656 17.7992 61.3173 16.451C61.3263 16.442 61.3352 16.4331 61.3441 16.4287C61.5361 16.2501 69.2146 11.6162 70.0807 15.8885C72.594 28.2768 35.1836 28.5491 34.2505 28.7143C34.1657 28.7277 34.0809 28.7545 34.0005 28.7857C32.8398 29.2545 33.447 29.7009 34.1925 29.9866C35.4782 30.4777 36.88 30.5625 38.1969 30.7411C65.0673 34.4419 76.777 23.8884 75.6699 15.0938C75.661 15.0179 75.6431 14.9465 75.6208 14.8706C75.3128 13.8662 74.8172 10.1653 71.1744 9.08495C69.9958 8.70103 68.7816 8.57603 67.5494 8.53585C67.5494 8.53585 67.545 8.53585 67.5405 8.53585C67.4289 8.51799 67.295 8.50906 67.1387 8.50906C64.9468 8.50906 58.7861 10.201 55.7459 13.6921" fill="url(#paint0_linear_83_7)"/>
<path d="M55.2058 3.15644C46.5272 6.83945 41.7907 14.4778 42.2505 20.2635C42.4782 22.451 47.188 24.0715 47.8933 19.1162C49.2415 9.62961 61.5495 4.24125 62.9245 4.21447C65.0628 4.17429 63.9825 6.71891 63.6611 7.26355C63.5361 7.47337 63.3977 7.70105 63.603 7.93766C63.8709 8.25015 64.1477 8.0448 64.3977 7.91533C65.6298 7.28587 66.2057 5.8216 65.9423 4.19661C65.853 3.64751 65.5539 3.14751 65.0941 2.83055C64.5584 2.45555 63.9468 2.22341 63.2638 2.10734C62.5048 1.97787 61.7504 1.91537 61.0048 1.91537C59.0049 1.91537 57.0629 2.35734 55.2013 3.15197" fill="url(#paint1_linear_83_7)"/>
<path d="M9.9739 16.2323L10.523 14.2055C10.6435 13.7546 11.0542 13.4376 11.523 13.4376H13.215C14.2016 13.4376 14.8891 13.6475 15.2819 14.0359C15.581 14.335 15.7328 14.7234 15.7328 15.143C15.7328 16.4599 14.5051 17.5358 12.1703 17.5358H10.9784C10.2953 17.5358 9.7998 16.8885 9.97837 16.2278M6.11232 7.56715C5.64357 7.56715 5.23286 7.87965 5.10786 8.335L0.0364753 27.2143C-0.142095 27.875 0.357897 28.5224 1.03646 28.5224H5.89358C6.36232 28.5224 6.77303 28.2099 6.89357 27.7545L8.09445 23.2992C8.21499 22.8483 8.62569 22.5313 9.09444 22.5313H9.32659C9.75516 22.5313 10.1391 22.7947 10.2909 23.192L12.1123 27.8572C12.2685 28.2545 12.6525 28.5179 13.081 28.5179H18.3622C19.1033 28.5179 19.6033 27.7634 19.3176 27.0804L17.4203 22.5269C17.2015 22.0001 17.4649 21.4063 17.9917 21.1876C21.4113 19.7814 22.8444 17.1698 22.8444 14.1787C22.8444 12.5314 22.3667 10.9734 21.197 9.8082C19.7908 8.40196 17.3355 7.56268 13.4739 7.56268H6.09893L6.11232 7.56715Z" fill="white"/>
<path d="M100.286 18.826C100.286 16.1921 102.174 13.3171 105.107 13.3171C107.621 13.3171 108.969 15.0537 108.969 17.268C108.969 19.9019 107.08 22.7769 104.147 22.7769C101.634 22.7769 100.286 21.0403 100.286 18.826ZM93.2501 19.4555C93.2501 24.8126 97.5001 28.9465 103.665 28.9465C110.701 28.9465 116 23.1385 116 16.643C116 11.2859 111.75 7.15198 105.585 7.15198C98.5492 7.15198 93.2501 12.96 93.2501 19.4555Z" fill="white"/>
<path d="M39.4826 7.57156C38.8443 7.57156 38.2818 8.00013 38.1166 8.62066L35.3755 18.8304C34.9246 20.4465 34.505 21.2545 33.88 21.884C33.313 22.4509 32.5006 22.75 31.6345 22.75C29.7774 22.75 28.7595 21.8527 28.7595 20.1161C28.7595 19.6384 28.8488 19.067 29.0006 18.4688L31.4559 9.3528C31.697 8.45549 31.0229 7.57156 30.0899 7.57156H25.8934C25.2551 7.57156 24.6926 8.00013 24.5274 8.6162L21.9962 18.0179C21.6971 19.1563 21.5453 20.3215 21.5453 21.4018C21.5453 26.1295 24.7194 28.9464 30.6166 28.9464C33.938 28.9464 36.9336 28.1696 38.9068 26.192C40.3755 24.7277 41.4514 22.692 42.2014 19.9063L45.0451 9.3528C45.2862 8.45549 44.6121 7.57156 43.679 7.57156H39.4826Z" fill="white"/>
<defs>
<linearGradient id="paint0_linear_83_7" x1="69.1704" y1="19.01" x2="30.5037" y2="29.3211" gradientUnits="userSpaceOnUse">
<stop stop-color="#FFF000"/>
<stop offset="0.71373" stop-color="#0BE2FF"/>
<stop offset="1" stop-color="#0EA5E9"/>
</linearGradient>
<linearGradient id="paint1_linear_83_7" x1="60.4111" y1="1.36181" x2="49.5763" y2="17.6653" gradientUnits="userSpaceOnUse">
<stop stop-color="#FFF000"/>
<stop offset="1" stop-color="#0EA5E9"/>
</linearGradient>
</defs>
</svg>
