<svg width="71" height="50" viewBox="0 0 71 50" fill="none" xmlns="http://www.w3.org/2000/svg">
<path d="M37.6823 20.1136C36.4032 21.5861 35.3843 23.4007 36.314 25.5648C39.3334 29.5585 44.2194 26.963 46.9711 24.717C46.986 24.7022 47.0008 24.6873 47.0157 24.6798C47.3355 24.3824 60.127 16.6628 61.5698 23.78C65.7568 44.4175 3.43524 44.8711 1.88092 45.1463C1.73962 45.1686 1.59832 45.2132 1.46445 45.2653C-0.469149 46.0462 0.542269 46.7899 1.78424 47.2658C3.92607 48.0839 6.26127 48.2252 8.45517 48.5227C53.2181 54.6879 72.7252 37.107 70.8808 22.4562C70.866 22.3298 70.8362 22.2108 70.799 22.0843C70.2859 20.411 69.4604 14.2458 63.3918 12.4461C61.4285 11.8065 59.4056 11.5983 57.353 11.5313C57.353 11.5313 57.3456 11.5313 57.3382 11.5313C57.1522 11.5016 56.9291 11.4867 56.6688 11.4867C53.0173 11.4867 42.7543 14.3053 37.6898 20.121" fill="url(#paint0_linear_1_55)"/>
<path d="M36.7899 2.56985C22.3325 8.70532 14.4419 21.4299 15.2079 31.0682C15.5872 34.7123 23.4332 37.4119 24.6082 29.1569C26.8541 13.3534 47.3578 4.37702 49.6484 4.3324C53.2107 4.26547 51.4109 8.50453 50.8755 9.41183C50.6672 9.76137 50.4367 10.1407 50.7788 10.5348C51.225 11.0554 51.6861 10.7133 52.1026 10.4976C54.1551 9.44902 55.1145 7.0097 54.6757 4.30266C54.527 3.38791 54.0287 2.55498 53.2627 2.02695C52.3703 1.40225 51.3514 1.01553 50.2136 0.822169C48.9493 0.606498 47.6925 0.50238 46.4505 0.50238C43.1187 0.50238 39.8837 1.23864 36.7825 2.56241" fill="url(#paint1_linear_1_55)"/>
<defs>
<linearGradient id="paint0_linear_1_55" x1="46.9116" y1="59.5516" x2="26.8318" y2="13.5765" gradientUnits="userSpaceOnUse">
<stop stop-color="#0DEE9D"/>
<stop offset="0.52" stop-color="#0BE2FF"/>
<stop offset="1" stop-color="#0EA5E9"/>
</linearGradient>
<linearGradient id="paint1_linear_1_55" x1="45.4614" y1="-0.419801" x2="27.4119" y2="26.7399" gradientUnits="userSpaceOnUse">
<stop stop-color="#0BE2FF"/>
<stop offset="1" stop-color="#0EA5E9"/>
</linearGradient>
</defs>
</svg>
