<svg width="261" height="34" viewBox="0 0 261 34" fill="none" xmlns="http://www.w3.org/2000/svg">
<path d="M0 1.14527H61.4478V33.7412H0V1.14527Z" fill="#00ADED"/>
<path d="M148.002 1.14527H61.4469V33.7412H148.002V1.14527Z" fill="#003054"/>
<path d="M148.003 1.14527H231.218V33.8367H148.003V1.14527Z" fill="#00ADED"/>
<path d="M260.328 0.947144H231.256V33.7633H260.328V0.947144Z" fill="#FFF212"/>
<path d="M49.6678 22.5514H42.6523L40.8441 25.9748H37.9752L46.9436 9.19532H50.1259L53.1636 25.9748H50.2705L49.6678 22.5514ZM49.3062 20.4058L47.932 12.5223L43.7854 20.4058H49.3062Z" fill="#003054"/>
<path d="M32.4819 9.21951C34.1695 9.21951 35.4472 9.59721 36.3151 10.3526C37.183 11.108 37.617 12.0884 37.617 13.2938C37.617 13.5028 37.5848 13.8162 37.5206 14.2341C37.3277 15.3109 36.8295 16.2994 36.0258 17.1994C35.2383 18.0995 34.1614 18.7102 32.7953 19.0317L35.7124 25.9749H32.4337L29.7817 19.2727H27.6602L26.4789 25.9749H23.7305L26.6958 9.21951H32.4819ZM34.6999 14.2341C34.7481 13.993 34.7722 13.7599 34.7722 13.5349C34.7722 12.8438 34.5472 12.3134 34.0972 11.9438C33.6632 11.558 32.9962 11.3652 32.0962 11.3652H29.0585L28.0459 17.103H31.0836C32.1122 17.103 32.9319 16.8458 33.5427 16.3315C34.1695 15.8172 34.5552 15.118 34.6999 14.2341Z" fill="#003054"/>
<path d="M23.1834 14.2098C23.0387 15.0616 22.6932 15.8652 22.1467 16.6206C21.6163 17.376 20.8689 17.9948 19.9046 18.477C18.9403 18.9431 17.767 19.1761 16.3848 19.1761H13.3471L12.1417 25.9747H9.3933L12.3586 9.21931H18.1447C19.8323 9.21931 21.11 9.59702 21.9779 10.3524C22.8458 11.0917 23.2798 12.0641 23.2798 13.2695C23.2798 13.4785 23.2476 13.7919 23.1834 14.2098ZM16.7705 17.0305C17.8152 17.0305 18.6349 16.7813 19.2296 16.2831C19.8403 15.7849 20.218 15.0937 20.3627 14.2098C20.4109 13.9687 20.435 13.7356 20.435 13.5106C20.435 12.8356 20.21 12.3132 19.76 11.9436C19.326 11.5578 18.659 11.365 17.7589 11.365H14.7213L13.7328 17.0305H16.7705Z" fill="#003054"/>
<path d="M136.234 25.9746L132.715 19.5859H131.726V25.9746H127.604V9.05048H134.523C135.857 9.05048 136.99 9.28353 137.922 9.74963C138.87 10.2157 139.577 10.8586 140.043 11.6783C140.51 12.4819 140.743 13.382 140.743 14.3785C140.743 15.5035 140.421 16.508 139.778 17.392C139.151 18.276 138.219 18.9028 136.982 19.2725L140.887 25.9746H136.234ZM131.726 16.6688H134.282C135.037 16.6688 135.599 16.4839 135.969 16.1143C136.355 15.7446 136.548 15.2223 136.548 14.5472C136.548 13.9043 136.355 13.398 135.969 13.0284C135.599 12.6587 135.037 12.4739 134.282 12.4739H131.726V16.6688Z" fill="white"/>
<path d="M118.682 12.3533V15.7767H124.203V18.9591H118.682V22.6718H124.926V25.9746H114.56V9.05048H124.926V12.3533H118.682Z" fill="white"/>
<path d="M104.586 22.5995H111.867V25.9746H99.909V22.8405L107.141 12.4257H99.909V9.05048H111.867V12.1846L104.586 22.5995Z" fill="white"/>
<path d="M92.9581 22.9852H86.6417L85.6292 25.9746H81.3137L87.4373 9.05048H92.2108L98.3343 25.9746H93.9707L92.9581 22.9852ZM91.8974 19.8029L89.7999 13.607L87.7266 19.8029H91.8974Z" fill="white"/>
<path d="M80.2564 9.05049V12.3534H73.3614V15.9214H78.5206V19.1278H73.3614V25.9746H69.2388V9.05049H80.2564Z" fill="white"/>
<path d="M217.425 26.0568C215.865 26.0568 214.443 25.6952 213.157 24.9719C211.872 24.2326 210.851 23.212 210.096 21.9102C209.356 20.5922 208.987 19.1136 208.987 17.4742C208.987 15.8348 209.356 14.3642 210.096 13.0623C210.851 11.7444 211.872 10.7238 213.157 10.0006C214.443 9.26124 215.865 8.89158 217.425 8.89158C219 8.89158 220.43 9.26124 221.716 10.0006C223.002 10.7238 224.014 11.7364 224.753 13.0382C225.493 14.3401 225.862 15.8188 225.862 17.4742C225.862 19.1297 225.493 20.6083 224.753 21.9102C224.014 23.212 223.002 24.2326 221.716 24.9719C220.43 25.6952 219 26.0568 217.425 26.0568ZM217.425 24.1523C218.598 24.1523 219.651 23.879 220.583 23.3326C221.531 22.7861 222.27 22.0066 222.801 20.994C223.347 19.9815 223.62 18.8082 223.62 17.4742C223.62 16.1241 223.347 14.9508 222.801 13.9544C222.27 12.9418 221.539 12.1623 220.607 11.6158C219.675 11.0694 218.614 10.7961 217.425 10.7961C216.235 10.7961 215.174 11.0694 214.242 11.6158C213.31 12.1623 212.571 12.9418 212.024 13.9544C211.494 14.9508 211.229 16.1241 211.229 17.4742C211.229 18.8082 211.494 19.9815 212.024 20.994C212.571 22.0066 213.31 22.7861 214.242 23.3326C215.19 23.879 216.251 24.1523 217.425 24.1523Z" fill="white"/>
<path d="M207.104 9.08449V10.8685H202.524V25.8881H200.33V10.8685H195.725V9.08449H207.104Z" fill="white"/>
<path d="M193.024 9.08449V25.8881H190.831V9.08449H193.024Z" fill="white"/>
<path d="M176.708 9.08449V19.7163C176.708 21.2111 177.07 22.32 177.793 23.0433C178.532 23.7666 179.553 24.1282 180.855 24.1282C182.141 24.1282 183.145 23.7666 183.868 23.0433C184.608 22.32 184.977 21.2111 184.977 19.7163V9.08449H187.171V19.6922C187.171 21.0905 186.89 22.2718 186.327 23.2362C185.765 24.1844 185.001 24.8916 184.037 25.3577C183.089 25.8238 182.02 26.0569 180.831 26.0569C179.641 26.0569 178.564 25.8238 177.6 25.3577C176.652 24.8916 175.896 24.1844 175.334 23.2362C174.787 22.2718 174.514 21.0905 174.514 19.6922V9.08449H176.708Z" fill="white"/>
<path d="M170.841 9.20508V25.8881H168.647V13.4482L163.103 25.8881H161.56L155.991 13.4241V25.8881H153.797V9.20508H156.159L162.331 22.9951L168.503 9.20508H170.841Z" fill="white"/>
<path d="M253.059 20.4426H248.548V25.1739H243.282V20.4426H238.743V15.3978H243.282V10.6379H248.548V15.3978H253.059V20.4426Z" fill="#003054"/>
</svg>
