<svg width="111" height="30" viewBox="0 0 111 30" fill="none" xmlns="http://www.w3.org/2000/svg">
<path d="M81.4261 14.4644L81.9686 19.3343H78.3034L81.4261 14.4644ZM80.6016 6.58716C80.3112 6.58716 80.0377 6.7324 79.8711 6.97162L67.2223 25.396C66.8207 25.9855 67.2393 26.7844 67.9527 26.7844H73.096C73.3951 26.7844 73.677 26.6349 73.8393 26.3828L75.0653 24.4989C75.2277 24.2469 75.5096 24.0974 75.8086 24.0974H81.7337C82.2249 24.0974 82.5838 24.5331 82.5197 25.0201C82.3873 25.9941 83.1348 26.7929 84.0447 26.7929H88.7907C89.3333 26.7929 89.7476 26.3102 89.6665 25.7762L86.8983 7.35182C86.8342 6.92036 86.4583 6.59997 86.0226 6.59997H80.6059L80.6016 6.58716Z" fill="white"/>
<path d="M78.1283 3.38326C77.8549 3.92578 78.0984 4.59219 78.658 4.82714L79.6319 5.23723C80.0762 5.42519 80.6016 5.2885 80.8836 4.89549C81.2851 4.33588 81.7038 4.01122 82.2292 4.01122C82.6009 4.01122 83.1177 4.29743 83.6603 4.66908C84.3181 5.12617 85.2366 5.58752 86.2106 5.58752C87.774 5.58752 89.3845 4.56228 90.5678 2.20423C90.8412 1.66171 90.602 0.995306 90.0381 0.760355L89.0641 0.35026C88.6199 0.162299 88.0944 0.298998 87.8125 0.692006C87.4109 1.25162 86.9923 1.57628 86.4669 1.57628C86.0952 1.57628 85.5783 1.29006 85.0358 0.918413C84.3779 0.461327 83.4595 -3.05176e-05 82.4855 -3.05176e-05C80.922 -3.05176e-05 79.3116 1.02094 78.1283 3.38326Z" fill="white"/>
<path d="M53.3388 12.5848C52.6041 13.4306 52.0188 14.4729 52.5528 15.716C54.2872 18.01 57.0938 16.5191 58.6743 15.229C58.6829 15.2205 58.6914 15.212 58.7 15.2077C58.8837 15.0368 66.2312 10.6026 67.0599 14.6908C69.465 26.5451 33.667 26.8057 32.7742 26.9638C32.6931 26.9766 32.6119 27.0022 32.535 27.0321C31.4243 27.4807 32.0053 27.9078 32.7187 28.1812C33.949 28.6511 35.2903 28.7323 36.5505 28.9032C62.2627 32.4445 73.4677 22.3459 72.4083 13.9304C72.3997 13.8578 72.3826 13.7894 72.3613 13.7168C72.0665 12.7557 71.5924 9.2143 68.1066 8.18052C66.9788 7.81314 65.8168 7.69353 64.6378 7.65509C64.6378 7.65509 64.6335 7.65509 64.6293 7.65509C64.5225 7.638 64.3943 7.62946 64.2448 7.62946C62.1473 7.62946 56.2522 9.24848 53.3431 12.5891" fill="url(#paint0_linear_1_46)"/>
<path d="M52.8262 2.50755C44.5218 6.03181 39.9893 13.3409 40.4293 18.8772C40.6472 20.9704 45.154 22.5211 45.8289 17.7793C47.119 8.7017 58.8965 3.5456 60.2122 3.51997C62.2584 3.48152 61.2246 5.91647 60.917 6.43763C60.7974 6.63841 60.665 6.85627 60.8615 7.08268C61.1178 7.38171 61.3827 7.1852 61.6219 7.06132C62.8009 6.45899 63.352 5.05783 63.1 3.50288C63.0145 2.97745 62.7283 2.499 62.2883 2.1957C61.7757 1.83687 61.1904 1.61473 60.5369 1.50367C59.8106 1.37978 59.0887 1.31998 58.3753 1.31998C56.4615 1.31998 54.6033 1.74289 52.8219 2.50327" fill="url(#paint1_linear_1_46)"/>
<path d="M9.54399 15.0197L10.0694 13.0803C10.1848 12.6489 10.5778 12.3456 11.0263 12.3456H12.6453C13.5894 12.3456 14.2473 12.5464 14.6232 12.918C14.9094 13.2042 15.0547 13.5759 15.0547 13.9774C15.0547 15.2376 13.8799 16.2671 11.6457 16.2671H10.5052C9.85156 16.2671 9.37739 15.6477 9.54827 15.0155M5.84886 6.72812C5.40032 6.72812 5.00731 7.02715 4.8877 7.46287L0.034903 25.5284C-0.13597 26.1607 0.342471 26.7801 0.991789 26.7801H5.63954C6.08809 26.7801 6.48109 26.4811 6.59643 26.0453L7.74555 21.7821C7.86089 21.3506 8.2539 21.0473 8.70244 21.0473H8.92458C9.33468 21.0473 9.70206 21.2993 9.8473 21.6795L11.5902 26.1436C11.7397 26.5238 12.1071 26.7758 12.5172 26.7758H17.5708C18.2799 26.7758 18.7583 26.0539 18.4849 25.4003L16.6694 21.043C16.4601 20.5389 16.7121 19.9708 17.2162 19.7615C20.4884 18.4158 21.8597 15.9168 21.8597 13.0547C21.8597 11.4784 21.4026 9.98753 20.2834 8.87258C18.9378 7.52695 16.5883 6.72385 12.8931 6.72385H5.83604L5.84886 6.72812Z" fill="white"/>
<path d="M95.9631 17.5017C95.9631 14.9813 97.7701 12.2302 100.577 12.2302C102.982 12.2302 104.272 13.892 104.272 16.0108C104.272 18.5312 102.465 21.2823 99.6583 21.2823C97.2532 21.2823 95.9631 19.6205 95.9631 17.5017ZM89.2307 18.104C89.2307 23.2302 93.2975 27.1859 99.1969 27.1859C105.929 27.1859 111 21.6283 111 15.4128C111 10.2866 106.933 6.33084 101.034 6.33084C94.3014 6.33084 89.2307 11.8885 89.2307 18.104Z" fill="white"/>
<path d="M37.7808 6.73236C37.1699 6.73236 36.6317 7.14246 36.4736 7.73624L33.8507 17.5059C33.4193 19.0523 33.0177 19.8255 32.4197 20.4278C31.8771 20.9704 31.0997 21.2566 30.2709 21.2566C28.4938 21.2566 27.5199 20.3979 27.5199 18.7362C27.5199 18.2791 27.6053 17.7323 27.7506 17.1599L30.1001 8.43682C30.3307 7.57818 29.6857 6.73236 28.7929 6.73236H24.7773C24.1665 6.73236 23.6282 7.14246 23.4702 7.73197L21.048 16.7284C20.7618 17.8178 20.6166 18.9327 20.6166 19.9665C20.6166 24.4904 23.6539 27.1859 29.297 27.1859C32.4752 27.1859 35.3416 26.4426 37.2297 24.5502C38.6352 23.149 39.6647 21.2011 40.3823 18.5354L43.1035 8.43682C43.3342 7.57818 42.6891 6.73236 41.7963 6.73236H37.7808Z" fill="white"/>
<defs>
<linearGradient id="paint0_linear_1_46" x1="58.6402" y1="35.2383" x2="47.1062" y2="8.82984" gradientUnits="userSpaceOnUse">
<stop stop-color="#0DEE9D"/>
<stop offset="0.52" stop-color="#0BE2FF"/>
<stop offset="1" stop-color="#0EA5E9"/>
</linearGradient>
<linearGradient id="paint1_linear_1_46" x1="57.8072" y1="0.790269" x2="47.4394" y2="16.391" gradientUnits="userSpaceOnUse">
<stop stop-color="#0BE2FF"/>
<stop offset="1" stop-color="#0EA5E9"/>
</linearGradient>
</defs>
</svg>
