<svg width="606" height="544" viewBox="0 0 606 544" fill="none" xmlns="http://www.w3.org/2000/svg">
<g opacity="0.5">
<g clip-path="url(#clip0_2_887)">
<path d="M577.238 524.326C576.074 520.527 573.402 516.966 569.632 515.735C565.861 514.505 561.056 516.361 559.871 520.16C556.402 517.246 551.058 519.556 548.257 523.139C543.732 528.924 547.223 538.379 547.977 539.005C548.796 539.674 550.994 539.545 550.994 539.545L584.844 539.35C584.844 539.35 591.049 538.897 593.915 537.753C599.689 535.443 603.611 525.514 599.883 520.527C597.362 517.138 592.363 516.404 588.334 517.699C584.305 518.995 580.383 521.52 577.216 524.326" fill="#6CDD6C"/>
<path d="M550.52 540.689C549.658 540.689 548.128 540.581 547.266 539.868C545.93 538.789 542.569 528.579 547.374 522.448C549.399 519.858 552.416 518.066 555.282 517.764C556.768 517.592 558.169 517.851 559.375 518.498C560.108 517.181 561.25 516.102 562.715 515.325C564.935 514.159 567.649 513.922 569.976 514.656C573.338 515.735 576.16 518.585 577.755 522.427C581.052 519.75 584.65 517.721 588.033 516.642C592.083 515.347 597.793 515.8 600.81 519.858C602.555 522.189 602.943 525.643 601.909 529.334C600.659 533.738 597.707 537.451 594.346 538.789C591.351 539.976 585.21 540.451 584.93 540.473L551.015 540.667C550.908 540.667 550.735 540.667 550.52 540.667V540.689ZM556.143 519.966C555.928 519.966 555.734 519.966 555.519 520.009C553.278 520.247 550.778 521.758 549.141 523.851C545.176 528.924 548.128 537.386 548.774 538.249C548.925 538.357 550.046 538.508 550.951 538.465L584.844 538.271C584.844 538.271 590.834 537.818 593.506 536.76C596.199 535.681 598.698 532.486 599.732 528.773C600.594 525.751 600.314 523.01 599 521.24C596.63 518.066 591.997 517.743 588.679 518.8C585.167 519.923 581.353 522.189 577.97 525.19C577.69 525.449 577.302 525.535 576.936 525.427C576.57 525.319 576.29 525.039 576.16 524.672C574.975 520.765 572.39 517.829 569.287 516.814C567.52 516.253 565.452 516.447 563.749 517.333C562.349 518.066 561.358 519.189 560.948 520.506C560.841 520.873 560.56 521.132 560.194 521.24C559.849 521.348 559.44 521.261 559.16 521.024C558.32 520.311 557.307 519.966 556.165 519.966H556.143Z" fill="#50AA50"/>
<path d="M541.642 523.053C540.673 524.931 540.263 526.981 540.479 529.097C540.586 530.155 542.267 530.176 542.159 529.097C541.965 527.262 542.246 525.535 543.086 523.895C543.581 522.945 542.138 522.081 541.642 523.053Z" fill="#50AA50"/>
<path d="M536.751 524.391C536.234 526.291 536.191 528.19 536.6 530.111C536.837 531.169 538.453 530.716 538.216 529.658C537.85 528.039 537.915 526.442 538.367 524.823C538.647 523.787 537.031 523.333 536.751 524.37V524.391Z" fill="#50AA50"/>
<path d="M546.146 520.981C547.223 520.981 547.223 519.297 546.146 519.297C545.068 519.297 545.068 520.981 546.146 520.981Z" fill="#50AA50"/>
<path d="M550.907 529.097V530.586C550.907 531.666 552.588 531.666 552.588 530.586V529.097C552.588 528.018 550.907 528.018 550.907 529.097Z" fill="#50AA50"/>
<path d="M579.198 531.709V532.464C579.198 533.544 580.879 533.544 580.879 532.464V531.709C580.879 530.63 579.198 530.63 579.198 531.709Z" fill="#50AA50"/>
<path d="M576.096 529.701L576.462 530.068C577.216 530.824 578.401 529.637 577.647 528.881L577.281 528.514C576.527 527.759 575.342 528.946 576.096 529.701Z" fill="#50AA50"/>
<path d="M99.8691 492.681H43.1365C41.9083 492.681 40.8956 491.688 40.8956 490.436C40.8956 489.184 41.8868 488.191 43.1365 488.191H99.8691C101.097 488.191 102.11 489.184 102.11 490.436C102.11 491.688 101.119 492.681 99.8691 492.681Z" fill="#405B91"/>
<path d="M599.431 295.578H597.815C597.815 294.24 596.716 293.139 595.38 293.139C594.044 293.139 592.945 294.24 592.945 295.578H591.329C591.329 293.333 593.139 291.52 595.38 291.52C597.621 291.52 599.431 293.333 599.431 295.578Z" fill="white"/>
<path d="M605.227 201.053H603.611C603.611 199.715 602.512 198.614 601.176 198.614C599.84 198.614 598.741 199.715 598.741 201.053H597.125C597.125 198.808 598.935 196.995 601.176 196.995C603.417 196.995 605.227 198.808 605.227 201.053Z" fill="white"/>
<path d="M403.528 529.507H326.412L327.726 526.399C332.79 514.375 333.307 504.1 332.531 492.336L332.38 489.961L397.387 489.767V491.99C397.451 499.589 399.52 516.836 402.601 526.593L403.528 529.507ZM333.07 525.039H397.494C395.017 515.649 393.336 502.071 392.991 494.257L337.12 494.43C337.659 504.856 337.013 514.332 333.07 525.039Z" fill="#415B91"/>
<path d="M304.262 494.214C245.719 494.214 198.295 493.89 196.226 493.156C191.206 491.364 184.677 484.414 184.57 479.471C184.376 468.785 183.923 454.236 183.384 437.378C181.79 386.564 179.592 316.992 182.436 278.482C182.954 271.467 188.75 266.049 195.645 266.049H195.86L533.347 266.545C540.479 266.675 546.21 272.438 546.383 279.691C546.641 290.937 547.007 302.443 547.374 314.078C548.925 362.862 550.52 413.309 545.133 460.993C544.917 462.871 544.831 464.943 544.724 467.102C544.271 477.118 543.711 489.573 530.826 492.12C524.534 493.372 399.628 494.214 304.24 494.214H304.262ZM195.688 269.654C190.624 269.654 186.401 273.625 186.013 278.763C183.191 317.078 185.367 386.564 186.961 437.291C187.5 454.15 187.952 468.721 188.146 479.427C188.211 482.536 193.404 488.342 197.411 489.789C204.586 491.257 521.884 490.177 530.136 488.623C540.242 486.616 540.694 476.643 541.147 466.972C541.254 464.727 541.341 462.569 541.578 460.626C546.943 413.18 545.348 362.884 543.797 314.229C543.431 302.572 543.064 291.067 542.806 279.799C542.677 274.489 538.518 270.28 533.325 270.172L195.86 269.675H195.709L195.688 269.654Z" fill="#415B91"/>
<path fill-rule="evenodd" clip-rule="evenodd" d="M523.931 278.18L205.944 277.77C200.234 277.684 195.429 281.612 194.998 286.75C191.443 329.382 196.291 418.339 197.002 454.15C197.067 457.647 202.755 462.871 206.849 464.166C211.675 465.699 513.847 464.533 521.237 463.238C534.51 460.928 532.248 447.307 533.347 438.608C539.638 389.37 535.782 335.837 534.532 287.678C534.403 282.454 529.705 278.288 523.909 278.202L523.931 278.18Z" fill="#85D3FF"/>
<path d="M431.107 541.746H298.81C293.553 541.746 290.817 537.602 290.817 533.522C290.817 529.442 293.553 525.276 298.81 525.276H431.107C436.365 525.276 439.101 529.421 439.101 533.5C439.101 537.58 436.365 541.746 431.107 541.746ZM298.81 528.881C295.341 528.881 294.415 531.795 294.415 533.522C294.415 535.249 295.341 538.142 298.81 538.142H431.107C434.576 538.142 435.503 535.227 435.503 533.5C435.503 531.774 434.576 528.881 431.107 528.881H298.81Z" fill="#415B91"/>
<path d="M206.655 481.672C212.602 481.672 212.602 472.412 206.655 472.412C200.708 472.412 200.708 481.672 206.655 481.672Z" fill="#415B91"/>
<path d="M225.272 481.672C231.218 481.672 231.218 472.412 225.272 472.412C219.325 472.412 219.325 481.672 225.272 481.672Z" fill="#415B91"/>
<path d="M243.888 481.672C249.835 481.672 249.835 472.412 243.888 472.412C237.941 472.412 237.941 481.672 243.888 481.672Z" fill="#415B91"/>
<path d="M364.959 275.417C367.738 275.417 367.76 271.078 364.959 271.078C362.158 271.078 362.158 275.417 364.959 275.417Z" fill="#415B91"/>
<path d="M259.164 155.571L262.203 152.527C262.827 151.923 262.827 150.908 262.203 150.304L259.552 147.671C258.949 147.045 258.777 145.944 259.208 145.167L261.362 139.943C261.599 139.101 262.526 138.432 263.388 138.432H267.115C267.977 138.432 268.688 137.719 268.688 136.856V132.56C268.688 131.697 267.977 130.984 267.115 130.984H263.388C262.526 130.984 261.621 130.294 261.362 129.473L259.208 124.25C258.798 123.494 258.949 122.372 259.552 121.746L262.203 119.112C262.827 118.486 262.827 117.493 262.203 116.889L259.164 113.845C258.561 113.241 257.548 113.241 256.945 113.845L254.295 116.5C253.67 117.105 252.571 117.277 251.817 116.867L246.581 114.709C245.741 114.471 245.073 113.564 245.073 112.679V108.945C245.073 108.082 244.362 107.369 243.5 107.369H239.212C238.35 107.369 237.639 108.082 237.639 108.945V112.679C237.639 113.543 236.971 114.45 236.131 114.709L230.895 116.867C230.141 117.277 229.021 117.126 228.417 116.5L225.767 113.867C225.164 113.241 224.151 113.241 223.548 113.867L220.51 116.91C219.885 117.515 219.885 118.508 220.51 119.134L223.138 121.767C223.742 122.393 223.914 123.516 223.505 124.271L221.35 129.495C221.113 130.337 220.186 131.006 219.324 131.006H215.575C214.713 131.006 214.002 131.697 214.002 132.582V136.877C214.002 137.741 214.713 138.453 215.575 138.453H219.324C220.186 138.453 221.091 139.144 221.35 139.964L223.505 145.188C223.914 145.944 223.763 147.066 223.138 147.692L220.51 150.326C219.885 150.952 219.885 151.945 220.51 152.549L223.548 155.593C224.151 156.219 225.142 156.219 225.767 155.593L228.417 152.959C229.021 152.355 230.141 152.182 230.917 152.614L236.131 154.772C236.971 155.01 237.639 155.916 237.639 156.801V160.557C237.639 161.421 238.35 162.133 239.212 162.133H243.5C244.362 162.133 245.073 161.421 245.073 160.557V156.801C245.073 155.938 245.741 155.031 246.581 154.772L251.817 152.614C252.571 152.204 253.692 152.355 254.295 152.959L256.945 155.593C257.548 156.219 258.561 156.219 259.164 155.593V155.571ZM241.367 147.26C234.45 147.26 228.827 141.626 228.827 134.697C228.827 127.768 234.45 122.134 241.367 122.134C248.283 122.134 253.907 127.747 253.907 134.697C253.907 141.648 248.283 147.26 241.367 147.26Z" fill="#B6E2FB"/>
<path d="M288.166 167.443L287.391 164.896C287.24 164.378 286.68 164.098 286.184 164.249L283.965 164.918C283.447 165.069 282.78 164.831 282.499 164.378L280.28 161.68C279.914 161.313 279.806 160.601 280.043 160.126L281.142 158.075C281.401 157.6 281.207 156.996 280.754 156.758L278.406 155.506C277.932 155.247 277.35 155.442 277.091 155.916L275.992 157.967C275.734 158.442 275.109 158.744 274.57 158.636L271.08 158.291C270.541 158.291 269.981 157.881 269.83 157.363L269.162 155.139C269.011 154.621 268.473 154.341 267.955 154.492L265.413 155.247C264.896 155.398 264.616 155.96 264.766 156.478L265.434 158.701C265.585 159.219 265.348 159.867 264.896 160.169L262.202 162.392C261.836 162.781 261.125 162.867 260.651 162.63L258.604 161.529C258.13 161.27 257.548 161.442 257.29 161.939L256.018 164.27C255.781 164.745 255.954 165.35 256.406 165.587L258.453 166.688C258.927 166.947 259.229 167.573 259.121 168.091L258.776 171.588C258.776 172.128 258.367 172.689 257.85 172.84L255.631 173.509C255.114 173.66 254.812 174.221 254.984 174.718L255.76 177.265C255.911 177.783 256.449 178.064 256.967 177.913L259.186 177.243C259.703 177.092 260.349 177.33 260.651 177.783L262.87 180.503C263.258 180.87 263.344 181.582 263.107 182.057L262.008 184.108C261.75 184.583 261.944 185.166 262.418 185.425L264.766 186.677C265.24 186.936 265.822 186.741 266.081 186.288L267.18 184.237C267.417 183.762 268.063 183.46 268.58 183.568L272.049 183.914C272.588 183.914 273.148 184.324 273.321 184.842L273.988 187.065C274.139 187.583 274.7 187.885 275.195 187.713L277.738 186.936C278.255 186.785 278.535 186.223 278.384 185.727L277.716 183.503C277.565 182.985 277.802 182.316 278.255 182.036L280.97 179.812C281.336 179.424 282.047 179.316 282.521 179.575L284.568 180.676C285.042 180.935 285.645 180.762 285.882 180.287L287.132 177.934C287.391 177.459 287.197 176.877 286.723 176.617L284.676 175.517C284.202 175.258 283.9 174.632 284.008 174.113L284.352 170.617C284.352 170.077 284.762 169.516 285.279 169.365L287.498 168.695C288.015 168.544 288.296 168.005 288.145 167.487L288.166 167.443ZM278.427 174.739C276.402 178.539 271.683 179.963 267.912 177.934C264.12 175.905 262.698 171.178 264.723 167.4C266.749 163.601 271.468 162.176 275.238 164.205C279.009 166.235 280.431 170.962 278.406 174.739H278.427Z" fill="#B6E2FB"/>
<path d="M415.034 216.616H344.791C343.563 216.616 342.551 215.624 342.551 214.372C342.551 213.12 343.542 212.127 344.791 212.127H415.034C416.262 212.127 417.275 213.12 417.275 214.372C417.275 215.624 416.284 216.616 415.034 216.616Z" fill="#405B91"/>
<path d="M272.049 248.586H158.584C157.356 248.586 156.343 247.593 156.343 246.341C156.343 245.089 157.335 244.096 158.584 244.096H272.049C273.278 244.096 274.29 245.089 274.29 246.341C274.29 247.593 273.299 248.586 272.049 248.586Z" fill="#405B91"/>
<path d="M860.664 543.991H2.24086C1.0127 543.991 0 542.998 0 541.746C0 540.494 0.991151 539.501 2.24086 539.501H860.664C861.892 539.501 862.904 540.494 862.904 541.746C862.904 542.998 861.913 543.991 860.664 543.991Z" fill="#405B91"/>
<path d="M545.779 188.511C540.974 188.511 536.449 190.389 533.045 193.8C527.249 199.607 526.085 208.63 530.244 215.71L530.546 216.206L512.295 234.49C512.295 234.49 511.412 235.353 511.391 236.562C511.391 237.49 511.843 238.418 512.769 239.347C513.739 240.318 514.773 240.836 515.829 240.836C517.079 240.836 517.962 240.102 517.984 240.102L536.191 221.862L536.686 222.164C539.444 223.783 542.59 224.647 545.801 224.647C550.606 224.647 555.13 222.769 558.535 219.358C565.559 212.321 565.559 200.859 558.535 193.822C555.13 190.411 550.606 188.533 545.779 188.533V188.511ZM545.779 219.25C538.798 219.25 533.11 213.551 533.11 206.557C533.11 199.563 538.798 193.865 545.779 193.865C552.76 193.865 558.449 199.563 558.449 206.557C558.449 213.551 552.76 219.25 545.779 219.25Z" fill="#B6E2FB"/>
<path d="M539.1 209.191H552.157V205.845H539.1V209.191Z" fill="#B6E2FB"/>
<path d="M211.115 539.847C209.887 539.847 208.874 538.854 208.874 537.602V365.194C208.874 363.963 209.865 362.949 211.115 362.949C212.365 362.949 213.356 363.942 213.356 365.194V537.602C213.356 538.832 212.365 539.847 211.115 539.847Z" fill="#405B91"/>
<path d="M251.127 539.847C249.899 539.847 248.886 538.854 248.886 537.602V365.194C248.886 363.963 249.878 362.949 251.127 362.949C252.377 362.949 253.368 363.942 253.368 365.194V537.602C253.368 538.832 252.377 539.847 251.127 539.847Z" fill="#405B91"/>
<path d="M251.128 379.203H211.137C209.909 379.203 208.896 378.21 208.896 376.958C208.896 375.706 209.887 374.713 211.137 374.713H251.128C252.356 374.713 253.368 375.706 253.368 376.958C253.368 378.21 252.377 379.203 251.128 379.203Z" fill="#405B91"/>
<path d="M251.128 398.911H211.137C209.909 398.911 208.896 397.918 208.896 396.666C208.896 395.414 209.887 394.421 211.137 394.421H251.128C252.356 394.421 253.368 395.414 253.368 396.666C253.368 397.918 252.377 398.911 251.128 398.911Z" fill="#405B91"/>
<path d="M251.128 418.619H211.137C209.909 418.619 208.896 417.626 208.896 416.374C208.896 415.122 209.887 414.129 211.137 414.129H251.128C252.356 414.129 253.368 415.122 253.368 416.374C253.368 417.626 252.377 418.619 251.128 418.619Z" fill="#405B91"/>
<path d="M251.128 438.306H211.137C209.909 438.306 208.896 437.313 208.896 436.061C208.896 434.809 209.887 433.816 211.137 433.816H251.128C252.356 433.816 253.368 434.809 253.368 436.061C253.368 437.313 252.377 438.306 251.128 438.306Z" fill="#405B91"/>
<path d="M251.128 458.014H211.137C209.909 458.014 208.896 457.021 208.896 455.769C208.896 454.517 209.887 453.524 211.137 453.524H251.128C252.356 453.524 253.368 454.517 253.368 455.769C253.368 457.021 252.377 458.014 251.128 458.014Z" fill="#405B91"/>
<path d="M251.128 477.7H211.137C209.909 477.7 208.896 476.707 208.896 475.455C208.896 474.203 209.887 473.211 211.137 473.211H251.128C252.356 473.211 253.368 474.203 253.368 475.455C253.368 476.707 252.377 477.7 251.128 477.7Z" fill="#405B91"/>
<path d="M251.128 497.409H211.137C209.909 497.409 208.896 496.416 208.896 495.164C208.896 493.912 209.887 492.919 211.137 492.919H251.128C252.356 492.919 253.368 493.912 253.368 495.164C253.368 496.416 252.377 497.409 251.128 497.409Z" fill="#405B91"/>
<path d="M251.128 517.095H211.137C209.909 517.095 208.896 516.102 208.896 514.85C208.896 513.598 209.887 512.605 211.137 512.605H251.128C252.356 512.605 253.368 513.598 253.368 514.85C253.368 516.102 252.377 517.095 251.128 517.095Z" fill="#405B91"/>
<path d="M156.666 373.547C155.438 373.547 154.425 372.554 154.425 371.303V362.582C154.425 361.351 155.417 360.337 156.666 360.337C157.916 360.337 158.907 361.33 158.907 362.582V371.303C158.907 372.533 157.916 373.547 156.666 373.547Z" fill="#405B91"/>
<path d="M160.997 369.187H152.292C151.064 369.187 150.051 368.194 150.051 366.942C150.051 365.69 151.043 364.697 152.292 364.697H160.997C162.225 364.697 163.238 365.69 163.238 366.942C163.238 368.194 162.247 369.187 160.997 369.187Z" fill="#405B91"/>
<path d="M357.611 61.7794C356.383 61.7794 355.37 60.7864 355.37 59.5344V50.8137C355.37 49.5832 356.362 48.5687 357.611 48.5687C358.861 48.5687 359.852 49.5617 359.852 50.8137V59.5344C359.852 60.7648 358.861 61.7794 357.611 61.7794Z" fill="#405B91"/>
<path d="M361.964 57.419H353.259C352.031 57.419 351.018 56.4261 351.018 55.1741C351.018 53.9221 352.009 52.9291 353.259 52.9291H361.964C363.192 52.9291 364.205 53.9221 364.205 55.1741C364.205 56.4261 363.214 57.419 361.964 57.419Z" fill="#405B91"/>
<path d="M428.069 513.058C427.875 513.058 427.66 513.037 427.445 512.972L419.084 510.576C417.899 510.231 417.21 509 417.555 507.813C417.899 506.626 419.127 505.957 420.313 506.28L428.673 508.676C429.858 509.022 430.547 510.252 430.203 511.439C429.922 512.432 429.017 513.058 428.048 513.058H428.069Z" fill="#405B91"/>
<path d="M422.683 516.059C422.489 516.059 422.273 516.037 422.058 515.973C420.873 515.627 420.183 514.397 420.528 513.21L422.92 504.834C423.265 503.647 424.493 502.978 425.678 503.302C426.863 503.647 427.552 504.877 427.208 506.065L424.816 514.44C424.536 515.433 423.631 516.059 422.661 516.059H422.683Z" fill="#405B91"/>
<path d="M384.114 249.794C383.92 249.794 383.705 249.773 383.511 249.708L375.151 247.312C373.966 246.967 373.276 245.736 373.621 244.549C373.966 243.362 375.194 242.671 376.379 243.016L384.739 245.412C385.924 245.758 386.614 246.988 386.269 248.175C385.989 249.168 385.084 249.794 384.114 249.794Z" fill="#405B91"/>
<path d="M378.727 252.773C378.533 252.773 378.318 252.752 378.102 252.687C376.917 252.341 376.228 251.111 376.573 249.924L378.964 241.548C379.309 240.361 380.537 239.67 381.722 240.016C382.907 240.361 383.597 241.592 383.252 242.779L380.86 251.154C380.58 252.147 379.675 252.773 378.706 252.773H378.727Z" fill="#405B91"/>
<path d="M400.215 189.283C412.341 177.136 412.341 157.441 400.215 145.293C388.09 133.146 368.431 133.146 356.306 145.293C344.18 157.441 344.18 177.136 356.306 189.283C368.431 201.431 388.09 201.431 400.215 189.283Z" fill="#B6E2FB"/>
<path d="M378.253 190.584C391.093 190.584 401.502 180.156 401.502 167.292C401.502 154.429 391.093 144.001 378.253 144.001C365.413 144.001 355.004 154.429 355.004 167.292C355.004 180.156 365.413 190.584 378.253 190.584Z" fill="white"/>
<path d="M378.253 191.49C364.937 191.49 354.099 180.632 354.099 167.292C354.099 153.952 364.937 143.094 378.253 143.094C391.569 143.094 402.407 153.952 402.407 167.292C402.407 180.632 391.569 191.49 378.253 191.49ZM378.253 144.907C365.928 144.907 355.909 154.945 355.909 167.314C355.909 179.683 365.928 189.699 378.253 189.699C390.578 189.699 400.597 179.661 400.597 167.314C400.597 154.967 390.578 144.907 378.253 144.907Z" fill="#405B91"/>
<path d="M378.253 168.177C377.757 168.177 377.348 167.767 377.348 167.271V155.42C377.348 154.923 377.757 154.513 378.253 154.513C378.748 154.513 379.158 154.923 379.158 155.42V167.271C379.158 167.767 378.748 168.177 378.253 168.177Z" fill="#405B91"/>
<path d="M392.108 168.177H378.232C377.736 168.177 377.327 167.767 377.327 167.271C377.327 166.774 377.736 166.364 378.232 166.364H392.108C392.603 166.364 393.013 166.774 393.013 167.271C393.013 167.767 392.603 168.177 392.108 168.177Z" fill="#405B91"/>
<path d="M379.158 146.613C379.158 147.131 378.749 147.541 378.232 147.541C377.715 147.541 377.305 147.131 377.305 146.613C377.305 146.095 377.715 145.685 378.232 145.685C378.749 145.685 379.158 146.095 379.158 146.613Z" fill="#405B91"/>
<path d="M393.487 153.326C393.121 153.693 392.539 153.693 392.194 153.326C391.828 152.959 391.828 152.376 392.194 152.031C392.56 151.664 393.142 151.664 393.487 152.031C393.853 152.398 393.853 152.981 393.487 153.326Z" fill="#405B91"/>
<path d="M398.874 168.199C398.356 168.199 397.947 167.789 397.947 167.271C397.947 166.753 398.356 166.342 398.874 166.342C399.391 166.342 399.8 166.753 399.8 167.271C399.8 167.789 399.391 168.199 398.874 168.199Z" fill="#405B91"/>
<path d="M392.172 182.554C391.806 182.187 391.806 181.604 392.172 181.258C392.539 180.913 393.12 180.892 393.465 181.258C393.832 181.625 393.832 182.208 393.465 182.554C393.099 182.921 392.517 182.921 392.172 182.554Z" fill="#405B91"/>
<path d="M377.327 187.95C377.327 187.432 377.736 187.022 378.253 187.022C378.77 187.022 379.18 187.432 379.18 187.95C379.18 188.468 378.77 188.878 378.253 188.878C377.736 188.878 377.327 188.468 377.327 187.95Z" fill="#405B91"/>
<path d="M363.02 181.237C363.386 180.87 363.968 180.87 364.313 181.237C364.657 181.604 364.679 182.187 364.313 182.532C363.946 182.877 363.364 182.899 363.02 182.532C362.653 182.165 362.653 181.582 363.02 181.237Z" fill="#405B91"/>
<path d="M357.612 168.22C358.123 168.22 358.538 167.805 358.538 167.292C358.538 166.78 358.123 166.364 357.612 166.364C357.1 166.364 356.685 166.78 356.685 167.292C356.685 167.805 357.1 168.22 357.612 168.22Z" fill="#405B91"/>
<path d="M364.313 152.009C364.679 152.376 364.679 152.959 364.313 153.304C363.946 153.671 363.365 153.671 363.02 153.304C362.675 152.937 362.653 152.355 363.02 152.009C363.386 151.664 363.968 151.642 364.313 152.009Z" fill="#405B91"/>
<path d="M423.652 155.398H410.617C410.121 155.398 409.712 154.988 409.712 154.492C409.712 153.995 410.121 153.585 410.617 153.585H423.652C424.148 153.585 424.557 153.995 424.557 154.492C424.557 154.988 424.148 155.398 423.652 155.398Z" fill="#405B91"/>
<path d="M423.652 180.956H410.617C410.121 180.956 409.712 180.546 409.712 180.05C409.712 179.553 410.121 179.143 410.617 179.143H423.652C424.148 179.143 424.557 179.553 424.557 180.05C424.557 180.546 424.148 180.956 423.652 180.956Z" fill="#405B91"/>
<path d="M439.855 168.199H415.507C415.012 168.199 414.603 167.789 414.603 167.292C414.603 166.796 415.012 166.386 415.507 166.386H439.855C440.351 166.386 440.76 166.796 440.76 167.292C440.76 167.789 440.351 168.199 439.855 168.199Z" fill="#405B91"/>
<path d="M482.324 504.122H467.931V518.541H482.324V504.122Z" fill="white"/>
<path d="M483.466 519.664H466.832V502.999H483.466V519.664ZM469.073 517.419H481.247V505.223H469.073V517.419Z" fill="#415B91"/>
<path d="M500.553 507.295H487.517C487.021 507.295 486.612 506.885 486.612 506.388C486.612 505.892 487.021 505.482 487.517 505.482H500.553C501.048 505.482 501.458 505.892 501.458 506.388C501.458 506.885 501.048 507.295 500.553 507.295Z" fill="#405B91"/>
<path d="M505.465 517.16H487.84C487.172 517.16 486.634 516.75 486.634 516.253C486.634 515.757 487.172 515.347 487.84 515.347H505.465C506.133 515.347 506.672 515.757 506.672 516.253C506.672 516.75 506.133 517.16 505.465 517.16Z" fill="#405B91"/>
<path d="M511.865 511.958H487.517C487.021 511.958 486.612 511.547 486.612 511.051C486.612 510.554 487.021 510.144 487.517 510.144H511.865C512.36 510.144 512.77 510.554 512.77 511.051C512.77 511.547 512.36 511.958 511.865 511.958Z" fill="#405B91"/>
<path d="M151.797 306.868H166.19V292.448H151.797V306.868Z" fill="white"/>
<path d="M167.31 307.99H150.676V291.326H167.31V307.99ZM152.917 305.746H165.07V293.571H152.917V305.746Z" fill="#415B91"/>
<path d="M133.568 295.622H146.604C147.1 295.622 147.509 295.212 147.509 294.715C147.509 294.219 147.1 293.808 146.604 293.808H133.568C133.073 293.808 132.663 294.219 132.663 294.715C132.663 295.212 133.073 295.622 133.568 295.622Z" fill="#405B91"/>
<path d="M128.677 305.508H146.302C146.97 305.508 147.509 305.098 147.509 304.601C147.509 304.105 146.97 303.695 146.302 303.695H128.677C128.009 303.695 127.47 304.105 127.47 304.601C127.47 305.098 128.009 305.508 128.677 305.508Z" fill="#405B91"/>
<path d="M122.256 300.284H146.604C147.1 300.284 147.509 299.874 147.509 299.378C147.509 298.881 147.1 298.471 146.604 298.471H122.256C121.761 298.471 121.351 298.881 121.351 299.378C121.351 299.874 121.761 300.284 122.256 300.284Z" fill="#405B91"/>
<path d="M595.359 346.651H590.898V539.178H595.359V346.651Z" fill="#3F5B91"/>
<path d="M593.635 325.583H592.644C585.325 325.583 579.392 331.527 579.392 338.859V356.667C579.392 363.999 585.325 369.943 592.644 369.943H593.635C600.953 369.943 606.886 363.999 606.886 356.667V338.859C606.886 331.527 600.953 325.583 593.635 325.583Z" fill="#B6E2FB"/>
<path d="M569.373 358.631C570.601 358.459 571.808 358.178 572.993 357.768C574.006 357.423 573.575 355.804 572.541 356.149C571.356 356.559 570.17 356.84 568.921 357.013C567.865 357.164 568.317 358.783 569.373 358.631Z" fill="#3F5B91"/>
<path d="M567.197 346.694C568.748 346.738 570.257 346.975 571.743 347.385C572.778 347.687 573.23 346.068 572.196 345.766C570.558 345.313 568.899 345.054 567.197 345.011C566.12 344.989 566.12 346.651 567.197 346.694Z" fill="#3F5B91"/>
<path d="M568.662 332.879C569.869 333.268 571.075 333.656 572.282 334.045C573.316 334.369 573.747 332.75 572.734 332.426C571.528 332.037 570.321 331.649 569.115 331.26C568.08 330.936 567.649 332.555 568.662 332.879Z" fill="#3F5B91"/>
<path d="M582.711 541.79L585.684 516.059H600.207L603.568 541.423L582.711 541.79Z" fill="#405B91"/>
<path d="M172.589 418.598C171.921 414.496 169.034 403.941 162.678 407.287C152.379 412.705 164.811 433.233 152.4 436.86C151.732 428.678 149.987 423.044 146.281 423.368C138.675 424.059 140.7 441.781 140.571 445.775C140.442 449.746 140.248 453.826 140.075 457.928C131.112 459.547 132.9 436.147 127.449 432.909C118.981 427.88 117.193 439.083 117.408 444.264C117.796 453.071 120.166 463.626 128.44 468.289C131.155 469.843 135.96 471.57 139.709 471.268C139.666 478.305 139.968 485.32 141.131 492.012C141.131 492.077 141.26 492.077 141.282 492.012L146.302 492.293C146.302 492.293 146.302 492.357 146.302 492.379C146.259 494.581 149.707 494.602 149.728 492.379C149.793 488.127 152.4 467.253 152.702 449.552C156.709 450.157 161.751 448.279 164.617 446.163C173.171 439.882 174.162 428.333 172.589 418.598Z" fill="#6CDD6C"/>
<path d="M147.961 494.969C147.444 494.969 146.949 494.84 146.518 494.581C145.979 494.257 145.613 493.76 145.441 493.178L141.734 492.983L140.399 493.027L140.183 492.185C139.192 486.508 138.739 480.161 138.739 472.282C134.624 472.282 130.099 470.361 127.966 469.152C119.153 464.166 116.848 452.898 116.46 444.328C116.309 440.875 117.02 433.751 120.877 431.441C122.838 430.276 125.208 430.492 127.923 432.111C130.552 433.665 131.564 438.479 132.728 444.048C134.301 451.581 135.723 456.999 139.17 457.086L139.257 455.229C139.407 452.035 139.537 448.861 139.644 445.753C139.644 445.149 139.644 444.199 139.601 443.055C139.364 436.082 138.912 423.088 146.238 422.418C147.358 422.311 148.392 422.634 149.297 423.39C151.344 425.117 152.637 429.089 153.284 435.521C157.916 433.449 157.658 428.096 157.399 421.944C157.119 415.727 156.839 409.294 162.29 406.423C164.057 405.495 165.759 405.409 167.31 406.207C171.857 408.495 173.43 417.41 173.581 418.425C174.787 425.894 175.304 439.515 165.22 446.919C162.419 448.991 157.679 450.804 153.671 450.588C153.413 462.137 152.228 474.873 151.431 483.378C151.043 487.63 150.719 490.997 150.698 492.379C150.698 493.35 150.202 494.171 149.384 494.624C148.953 494.861 148.479 494.969 148.005 494.969H147.961ZM141.928 491.084L147.25 491.364V492.293C147.207 492.746 147.38 492.875 147.487 492.94C147.746 493.091 148.134 493.091 148.414 492.94C148.629 492.811 148.737 492.616 148.737 492.336C148.737 490.868 149.06 487.652 149.47 483.183C150.289 474.463 151.517 461.273 151.711 449.509V448.43L152.81 448.581C156.516 449.142 161.342 447.329 164.035 445.364C173.3 438.565 172.783 425.743 171.641 418.727C171.146 415.64 169.401 409.424 166.406 407.913C165.414 407.416 164.337 407.481 163.109 408.107C158.713 410.417 158.972 415.964 159.23 421.857C159.511 428.333 159.834 435.651 152.659 437.766L151.538 438.09L151.452 436.924C150.784 428.765 149.233 425.851 148.026 424.858C147.531 424.426 146.992 424.253 146.367 424.318C140.851 424.815 141.26 437.097 141.476 442.99C141.519 444.199 141.541 445.17 141.541 445.818C141.433 448.926 141.304 452.099 141.153 455.316L141.002 458.748L140.248 458.877C134.128 459.978 132.405 451.711 130.875 444.415C129.884 439.73 128.871 434.874 126.975 433.73C124.906 432.499 123.183 432.262 121.868 433.06C119.024 434.766 118.227 440.81 118.378 444.22C118.744 452.315 120.856 462.914 128.914 467.469C131.694 469.044 136.24 470.599 139.623 470.318L140.657 470.232V471.268C140.614 479.125 141.023 485.45 141.928 491.062V491.084Z" fill="#50AA50"/>
<path d="M162.743 539.588H126.372C124.433 539.588 122.881 538.314 122.515 536.436L114.263 493.955L117.689 493.286L125.941 535.767C126.006 536.091 126.286 536.091 126.372 536.091H162.743C162.743 536.091 163.109 536.091 163.174 535.767L171.361 493.286L174.787 493.955L166.6 536.436C166.233 538.336 164.682 539.609 162.743 539.609V539.588Z" fill="#415B91"/>
<path d="M114.629 480.291H175.003C176.037 480.291 176.877 481.435 176.877 482.816V492.012C176.877 493.415 176.037 494.538 175.003 494.538H114.629C113.594 494.538 112.754 493.394 112.754 492.012V482.816C112.754 481.413 113.594 480.291 114.629 480.291Z" fill="#B6E2FB"/>
<path d="M175.003 495.509H114.629C113.077 495.509 111.806 493.955 111.806 492.012V482.816C111.806 480.895 113.077 479.319 114.629 479.319H175.003C176.554 479.319 177.825 480.895 177.825 482.816V492.012C177.825 493.933 176.554 495.509 175.003 495.509ZM114.629 481.241C114.198 481.241 113.702 481.91 113.702 482.816V492.012C113.702 492.919 114.198 493.588 114.629 493.588H175.003C175.434 493.588 175.929 492.919 175.929 492.012V482.816C175.929 481.91 175.434 481.241 175.003 481.241H114.629Z" fill="#405B91"/>
<path d="M175.003 495.358H114.629C113.164 495.358 111.957 493.868 111.957 492.034V482.838C111.957 481.003 113.142 479.514 114.629 479.514H175.003C176.468 479.514 177.675 481.003 177.675 482.838V492.034C177.675 493.868 176.468 495.358 175.003 495.358ZM114.629 481.089C114.112 481.089 113.551 481.802 113.551 482.838V492.034C113.551 493.048 114.112 493.782 114.629 493.782H175.003C175.52 493.782 176.08 493.07 176.08 492.034V482.838C176.08 481.802 175.52 481.089 175.003 481.089H114.629Z" fill="#B6E2FB"/>
<path d="M175.003 496.308H114.629C112.625 496.308 111.009 494.386 111.009 492.034V482.838C111.009 480.485 112.625 478.542 114.629 478.542H175.003C177.007 478.542 178.623 480.463 178.623 482.838V492.034C178.623 494.386 177.007 496.308 175.003 496.308ZM114.736 482.039C114.736 482.039 114.499 482.406 114.499 482.816V492.012C114.499 492.508 114.693 492.789 114.758 492.832H175.003C175.003 492.832 175.132 492.508 175.132 492.012V482.816C175.132 482.32 174.938 482.039 174.873 481.996H114.736V482.039Z" fill="#405B91"/>
<path d="M121.201 444.177C122.192 444.307 123.183 444.436 124.174 444.566C125.251 444.695 125.23 443.012 124.174 442.882C123.183 442.752 122.192 442.623 121.201 442.493C120.123 442.364 120.145 444.048 121.201 444.177Z" fill="#50AA50"/>
<path d="M125.596 430.966V432.456C125.596 433.535 127.277 433.535 127.277 432.456V430.966C127.277 429.887 125.596 429.887 125.596 430.966Z" fill="#50AA50"/>
<path d="M131.392 446.379C132.125 445.969 132.836 445.559 133.568 445.17C134.516 444.652 133.676 443.184 132.728 443.724C131.995 444.134 131.284 444.544 130.552 444.933C129.604 445.451 130.444 446.919 131.392 446.379Z" fill="#50AA50"/>
<path d="M122.774 465.677C123.657 465.073 124.519 464.447 125.402 463.842C126.286 463.238 125.445 461.77 124.562 462.396C123.679 463 122.817 463.626 121.933 464.231C121.05 464.835 121.89 466.303 122.774 465.677Z" fill="#50AA50"/>
<path d="M116.503 451.257C117.128 451.495 117.753 451.754 118.378 451.991C119.391 452.38 119.821 450.761 118.83 450.372C118.205 450.135 117.581 449.876 116.956 449.638C115.943 449.25 115.512 450.869 116.503 451.257Z" fill="#50AA50"/>
<path d="M128.656 459.05C129.065 459.072 129.302 459.266 129.539 459.568C130.229 460.41 131.414 459.201 130.724 458.381C130.186 457.733 129.496 457.431 128.656 457.366C127.578 457.28 127.578 458.964 128.656 459.05Z" fill="#50AA50"/>
<path d="M132.34 466.951C132.168 468.116 132.297 469.131 132.75 470.232C133.159 471.225 134.603 470.361 134.193 469.39C133.913 468.742 133.848 468.095 133.956 467.404C134.129 466.346 132.513 465.893 132.34 466.951Z" fill="#50AA50"/>
<path d="M141.088 467.253L142.575 467.641C143.609 467.922 144.062 466.303 143.027 466.022C142.532 465.893 142.036 465.763 141.541 465.634C140.506 465.353 140.054 466.972 141.088 467.253Z" fill="#50AA50"/>
<path d="M146.453 450.739C146.367 451.689 146.734 452.553 147.466 453.179C148.285 453.869 149.47 452.682 148.651 451.991C148.22 451.624 148.091 451.279 148.134 450.739C148.242 449.66 146.561 449.66 146.453 450.739Z" fill="#50AA50"/>
<path d="M144.32 438.759C143.824 439.428 143.738 440.097 143.889 440.896C144.083 441.954 145.699 441.5 145.505 440.443C145.462 440.097 145.548 439.817 145.764 439.601C146.41 438.737 144.945 437.896 144.32 438.759Z" fill="#50AA50"/>
<path d="M153.521 443.659V445.149C153.521 446.228 155.201 446.228 155.201 445.149V443.659C155.201 442.58 153.521 442.58 153.521 443.659Z" fill="#50AA50"/>
<path d="M137.921 441.026C138.287 441.285 138.675 441.522 139.041 441.781C139.946 442.386 140.787 440.939 139.882 440.335C139.515 440.076 139.128 439.838 138.761 439.579C137.856 438.975 137.016 440.443 137.921 441.026Z" fill="#50AA50"/>
<path d="M140.722 427.103C141.045 427.491 141.196 427.88 141.239 428.376C141.325 429.455 143.006 429.455 142.92 428.376C142.855 427.405 142.532 426.649 141.907 425.915C141.196 425.095 140.032 426.282 140.722 427.103Z" fill="#50AA50"/>
<path d="M144.945 422.008V424.253C144.945 425.333 146.626 425.333 146.626 424.253V422.008C146.626 420.929 144.945 420.929 144.945 422.008Z" fill="#50AA50"/>
<path d="M155.309 431.873C155.546 432.132 155.783 432.391 156.042 432.629C156.796 433.406 157.981 432.218 157.227 431.441C156.99 431.182 156.753 430.923 156.494 430.686C155.74 429.909 154.555 431.096 155.309 431.873Z" fill="#50AA50"/>
<path d="M156.968 421.879C157.701 421.922 158.455 421.965 159.187 422.008C160.265 422.073 160.265 420.389 159.187 420.325C158.455 420.281 157.701 420.238 156.968 420.195C155.891 420.13 155.891 421.814 156.968 421.879Z" fill="#50AA50"/>
<path d="M159.36 408.431C159.855 408.927 160.351 409.424 160.846 409.92C161.601 410.676 162.786 409.488 162.031 408.733C161.536 408.236 161.04 407.74 160.545 407.243C159.791 406.488 158.606 407.675 159.36 408.431Z" fill="#50AA50"/>
<path d="M165.802 404.113V406.725C165.802 407.805 167.483 407.805 167.483 406.725V404.113C167.483 403.034 165.802 403.034 165.802 404.113Z" fill="#50AA50"/>
<path d="M168.84 419.828C169.077 419.461 169.336 419.073 169.573 418.706C170.176 417.799 168.711 416.957 168.129 417.864C167.892 418.231 167.634 418.619 167.397 418.986C166.793 419.893 168.259 420.735 168.84 419.828Z" fill="#50AA50"/>
<path d="M163.174 436.32C163.798 436.082 164.423 435.845 165.048 435.586C166.039 435.197 165.608 433.578 164.596 433.967C163.971 434.204 163.346 434.442 162.721 434.701C161.73 435.089 162.161 436.708 163.174 436.32Z" fill="#50AA50"/>
<path d="M170.586 433.967C171.211 433.837 171.835 433.708 172.439 433.578C173.495 433.363 173.042 431.744 171.986 431.959C171.361 432.089 170.737 432.218 170.133 432.348C169.077 432.564 169.53 434.183 170.586 433.967Z" fill="#50AA50"/>
<path d="M165.802 441.803V442.17C165.802 443.249 167.483 443.249 167.483 442.17V441.803C167.483 440.723 165.802 440.723 165.802 441.803Z" fill="#50AA50"/>
<path d="M151.409 467.49C151.775 467.231 152.163 466.994 152.529 466.735C153.413 466.13 152.594 464.684 151.689 465.288C151.323 465.547 150.935 465.785 150.569 466.044C149.685 466.648 150.504 468.095 151.409 467.49Z" fill="#50AA50"/>
<path d="M150.439 473.685C151.107 473.038 151.818 472.671 152.723 472.455C153.779 472.218 153.327 470.599 152.271 470.836C151.107 471.117 150.116 471.656 149.254 472.498C148.479 473.254 149.664 474.441 150.439 473.685Z" fill="#50AA50"/>
<path d="M143.544 474.7C143.674 474.937 143.803 475.196 143.932 475.434C144.428 476.405 145.872 475.542 145.376 474.592C145.247 474.355 145.117 474.096 144.988 473.858C144.493 472.887 143.049 473.75 143.544 474.7Z" fill="#50AA50"/>
<path d="M137.145 476.513C138.093 477.01 138.998 477.118 140.032 476.923C141.088 476.707 140.636 475.088 139.58 475.304C138.998 475.434 138.502 475.348 137.985 475.067C137.037 474.57 136.175 476.017 137.145 476.513Z" fill="#50AA50"/>
<path d="M151 460.583C152.12 460.453 153.241 460.302 154.34 460.172C155.395 460.043 155.417 458.359 154.34 458.489C153.219 458.618 152.099 458.769 151 458.899C149.944 459.028 149.922 460.712 151 460.583Z" fill="#50AA50"/>
<path d="M301.116 386.996C319.15 370.655 337.185 354.314 355.22 337.995C357.891 335.577 353.927 331.627 351.277 334.045C333.242 350.386 315.207 366.726 297.173 383.045C294.501 385.463 298.466 389.413 301.116 386.996Z" fill="#D7EEFF"/>
<path d="M362.265 411.992C380.3 395.652 398.335 379.311 416.369 362.992C419.041 360.574 415.076 356.624 412.426 359.042C394.392 375.382 376.357 391.723 358.322 408.042C355.65 410.46 359.615 414.41 362.265 411.992Z" fill="#D7EEFF"/>
<path d="M295.815 430.513C333.63 393.579 371.423 356.646 409.237 319.712C411.823 317.186 407.858 313.236 405.294 315.761C367.48 352.695 329.687 389.629 291.872 426.563C289.287 429.088 293.251 433.039 295.815 430.513Z" fill="#D7EEFF"/>
<path d="M469.159 85.9991H466.724V242.369H469.159V85.9991Z" fill="#415B91"/>
<path d="M477.842 242.347C477.842 247.83 473.404 252.277 467.931 252.277C462.458 252.277 458.019 247.83 458.019 242.347C458.019 236.864 462.458 232.418 467.931 232.418C473.404 232.418 477.842 236.864 477.842 242.347Z" fill="#415B91"/>
<path d="M468.082 275.655C467.909 275.655 464.677 275.633 462.329 273.259C460.756 271.683 459.958 269.503 459.958 266.761C459.958 266.027 460.54 265.444 461.273 265.444C462.005 265.444 462.587 266.027 462.587 266.761C462.587 268.769 463.126 270.344 464.182 271.402C465.776 272.978 468.06 273.021 468.082 273.021C471.788 273.021 474.783 269.999 474.783 266.308C474.783 262.617 471.766 259.595 468.082 259.595C467.349 259.595 466.767 259.012 466.767 258.278V250.982C466.767 250.248 467.349 249.665 468.082 249.665C468.814 249.665 469.396 250.248 469.396 250.982V257.047C473.921 257.695 477.411 261.602 477.411 266.308C477.411 271.467 473.231 275.655 468.082 275.655Z" fill="#415B91"/>
<path d="M416.046 281.763C415.551 281.677 415.12 281.267 415.055 280.749C414.947 280.08 415.421 279.454 416.089 279.367L469.719 271.445C470.387 271.337 471.012 271.812 471.098 272.481C471.206 273.151 470.732 273.755 470.064 273.863L416.434 281.785C416.305 281.785 416.176 281.785 416.046 281.785V281.763Z" fill="#415B91"/>
<path d="M518.997 299.637C518.867 299.637 518.76 299.572 518.652 299.507L469.331 273.712C468.728 273.41 468.513 272.676 468.814 272.071C469.116 271.467 469.849 271.251 470.452 271.553L519.772 297.349C520.376 297.651 520.591 298.406 520.29 298.989C520.031 299.464 519.514 299.723 518.997 299.615V299.637Z" fill="#415B91"/>
<path d="M532.414 302.088L401.073 279.218C394.191 278.019 387.643 282.637 386.446 289.532L373.304 365.286C372.108 372.18 376.717 378.741 383.599 379.939L514.94 402.809C521.822 404.008 528.37 399.39 529.567 392.495L542.709 316.741C543.906 309.847 539.296 303.286 532.414 302.088Z" fill="white"/>
<path d="M516.756 404.588C515.916 404.588 515.075 404.524 514.213 404.372L383.791 381.664C379.891 380.995 376.508 378.836 374.224 375.598C371.94 372.36 371.078 368.432 371.746 364.525L384.717 289.686C386.118 281.634 393.789 276.216 401.826 277.619L532.248 300.327C536.148 300.997 539.531 303.155 541.815 306.393C544.099 309.631 544.961 313.56 544.293 317.467L531.321 392.306C530.072 399.494 523.802 404.588 516.756 404.588ZM399.305 280.77C393.853 280.77 389.005 284.699 388.036 290.268L375.064 365.107C374.547 368.129 375.215 371.173 376.982 373.677C378.749 376.181 381.378 377.843 384.373 378.383L514.795 401.091C521.001 402.192 526.947 397.983 528.025 391.766L540.996 316.927C541.513 313.905 540.845 310.861 539.078 308.379C537.311 305.875 534.683 304.213 531.688 303.673L401.265 280.965C400.597 280.857 399.951 280.792 399.305 280.792V280.77Z" fill="#415B91"/>
<path d="M528.729 309.465L402.058 287.408C397.662 286.643 393.478 289.593 392.714 293.997L380.712 363.18C379.947 367.584 382.892 371.775 387.289 372.541L513.959 394.598C518.356 395.363 522.539 392.413 523.303 388.009L535.306 318.826C536.07 314.422 533.125 310.23 528.729 309.465Z" fill="#B6E2FB"/>
<path d="M515.14 396.342C514.558 396.342 513.976 396.299 513.395 396.191L387.324 374.238C384.674 373.785 382.369 372.317 380.817 370.115C379.266 367.914 378.663 365.237 379.137 362.582L391.031 293.981C391.979 288.52 397.193 284.829 402.666 285.778L528.736 307.731C534.209 308.681 537.872 313.905 536.924 319.388L525.03 387.989C524.577 390.644 523.112 392.953 520.914 394.508C519.212 395.716 517.208 396.342 515.14 396.342ZM513.976 392.889C515.743 393.191 517.51 392.802 518.975 391.766C520.44 390.73 521.41 389.197 521.712 387.427L533.605 318.827C534.23 315.179 531.795 311.703 528.154 311.056L402.084 289.103C398.443 288.477 394.974 290.916 394.327 294.564L382.433 363.165C382.132 364.935 382.52 366.705 383.554 368.173C384.588 369.64 386.118 370.612 387.885 370.914L513.955 392.867L513.976 392.889Z" fill="#405B91"/>
<path d="M453.904 384.125L486.676 354.034L504.819 392.975L453.904 384.125Z" fill="white"/>
<path d="M506.736 394.443L451.469 384.815L487.043 352.156L506.736 394.443ZM456.339 383.391L502.901 391.507L486.31 355.868L456.339 383.391Z" fill="#415B91"/>
<path d="M389.091 372.835L447.203 319.496L479.351 388.55L389.091 372.835Z" fill="white"/>
<path d="M481.268 390.018L386.657 373.548L447.569 317.618L481.268 390.018ZM391.505 372.123L477.412 387.082L446.794 321.352L391.483 372.144L391.505 372.123Z" fill="#415B91"/>
<path d="M516.282 329.598C515.506 334.023 511.305 337.002 506.888 336.225C502.47 335.448 499.497 331.239 500.273 326.814C501.048 322.388 505.25 319.41 509.667 320.187C514.084 320.964 517.058 325.173 516.282 329.598Z" fill="white"/>
<path d="M508.31 337.477C507.771 337.477 507.232 337.434 506.715 337.348C501.695 336.463 498.312 331.67 499.195 326.641C499.626 324.202 500.962 322.086 502.988 320.662C505.013 319.237 507.448 318.676 509.883 319.107C512.317 319.539 514.429 320.877 515.851 322.906C517.273 324.936 517.812 327.375 517.402 329.814C516.971 332.253 515.635 334.369 513.61 335.793C512.037 336.894 510.206 337.477 508.31 337.477ZM508.267 321.201C506.844 321.201 505.444 321.633 504.237 322.475C502.707 323.554 501.695 325.173 501.372 327.008C501.048 328.864 501.479 330.721 502.535 332.253C503.612 333.786 505.228 334.8 507.06 335.124C508.891 335.448 510.766 335.038 512.296 333.959C513.826 332.879 514.838 331.26 515.161 329.425C515.829 325.605 513.265 321.978 509.452 321.309C509.042 321.244 508.633 321.201 508.245 321.201H508.267Z" fill="#415B91"/>
<path d="M568.425 80.732H446.621V94.1586H568.425V80.732Z" fill="#B6E2FB"/>
<path d="M638.021 74.3857H598.612V34.8832H638.021V74.3857ZM602.663 70.3276H633.97V38.963H602.663V70.3276Z" fill="#415B91"/>
<path d="M634.558 35.4904L599.196 70.9175L602.06 73.787L637.423 38.36L634.558 35.4904Z" fill="#415B91"/>
<path d="M602.06 35.5057L599.196 38.3753L634.558 73.8023L637.423 70.9327L602.06 35.5057Z" fill="#415B91"/>
<path d="M602.663 74.3857H563.254V34.8832H602.663V74.3857ZM567.304 70.3276H598.612V38.963H567.304V70.3276Z" fill="#415B91"/>
<path d="M599.177 35.492L563.815 70.9189L566.679 73.7885L602.041 38.3615L599.177 35.492Z" fill="#415B91"/>
<path d="M566.694 35.492L563.83 38.3615L599.192 73.7885L602.057 70.919L566.694 35.492Z" fill="#415B91"/>
<path d="M567.283 74.3857H527.874V34.8832H567.283V74.3857ZM531.925 70.3276H563.232V38.963H531.925V70.3276Z" fill="#415B91"/>
<path d="M529.899 74.3858H494.541C493.722 74.3858 492.99 73.8893 492.666 73.1338C492.343 72.3783 492.537 71.4932 493.097 70.932L528.456 35.5092L531.321 38.3801L499.411 70.3492H529.037L563.814 35.5092L566.68 38.3801L531.321 73.8029C530.933 74.1915 530.416 74.4073 529.899 74.4073V74.3858Z" fill="#415B91"/>
<path d="M531.328 35.4781L528.464 38.3477L563.826 73.7747L566.691 70.9051L531.328 35.4781Z" fill="#415B91"/>
<path d="M222.147 214.89C226.456 214.89 226.478 208.176 222.147 208.176C217.816 208.176 217.816 214.89 222.147 214.89Z" fill="#405B91"/>
<path d="M585.619 144.756C589.928 144.756 589.95 138.043 585.619 138.043C581.288 138.043 581.288 144.756 585.619 144.756Z" fill="#405B91"/>
<path d="M89.5483 434.291C93.8577 434.291 93.8792 427.577 89.5483 427.577C85.2174 427.577 85.2174 434.291 89.5483 434.291Z" fill="#405B91"/>
<path d="M409.841 111.924C414.15 111.924 414.172 105.211 409.841 105.211C405.51 105.211 405.51 111.924 409.841 111.924Z" fill="#405B91"/>
</g>
</g>
<defs>
<clipPath id="clip0_2_887">
<rect width="862.883" height="543.991" fill="white"/>
</clipPath>
</defs>
</svg>
